<svg width="1728" height="1117" viewBox="0 0 1728 1117" fill="none" xmlns="http://www.w3.org/2000/svg">
<g opacity="0.33" filter="url(#filter0_d_102_284)">
<path opacity="0.05" d="M863.97 1458.34C1360.68 1458.34 1763.34 1055.68 1763.34 558.971C1763.34 62.263 1360.68 -340.398 863.97 -340.398C367.262 -340.398 -35.3994 62.263 -35.3994 558.971C-35.3994 1055.68 367.262 1458.34 863.97 1458.34Z" stroke="url(#paint0_linear_102_284)" stroke-linecap="round" stroke-dasharray="1000 1000"/>
<path opacity="0.1" d="M1114.97 1379.95C1568.38 1241.33 1823.57 761.386 1684.95 307.973C1546.33 -145.441 1066.39 -400.629 612.972 -262.007C159.559 -123.384 -95.6293 356.555 42.9931 809.968C181.615 1263.38 661.555 1518.57 1114.97 1379.95Z" stroke="url(#paint1_linear_102_284)" stroke-linecap="round" stroke-dasharray="1000 1000"/>
<path opacity="0.14" d="M1321.17 1236.8C1695.53 984.294 1794.3 476.124 1541.8 101.77C1289.29 -272.584 781.124 -371.362 406.77 -118.857C32.4155 133.648 -66.3627 641.818 186.142 1016.17C438.648 1390.53 946.818 1489.3 1321.17 1236.8Z" stroke="url(#paint2_linear_102_284)" stroke-linecap="round" stroke-dasharray="1000 1000"/>
<path opacity="0.19" d="M1467.6 1047.78C1737.56 714.405 1686.16 225.302 1352.78 -44.6606C1019.41 -314.623 530.302 -263.217 260.339 70.1597C-9.62356 403.536 41.7833 892.639 375.16 1162.6C708.536 1432.56 1197.64 1381.16 1467.6 1047.78Z" stroke="url(#paint3_linear_102_284)" stroke-linecap="round" stroke-dasharray="1000 1000"/>
<path opacity="0.23" d="M1550.94 822.675C1696.58 443.27 1507.08 17.6374 1127.67 -128.002C748.27 -273.642 322.637 -84.1384 176.997 295.266C31.3574 674.671 220.861 1100.3 600.266 1245.94C979.671 1391.58 1405.3 1202.08 1550.94 822.675Z" stroke="url(#paint4_linear_102_284)" stroke-linecap="round" stroke-dasharray="1000 1000"/>
<path opacity="0.28" d="M1557.24 607.45C1584.02 224.565 1295.33 -107.529 912.448 -134.303C529.563 -161.077 197.469 127.608 170.695 510.493C143.921 893.378 432.606 1225.47 815.491 1252.25C1198.38 1279.02 1530.47 990.335 1557.24 607.45Z" stroke="url(#paint5_linear_102_284)" stroke-linecap="round" stroke-dasharray="1000 1000"/>
<path opacity="0.32" d="M1501.29 411.834C1420.03 59.8501 1068.82 -159.613 716.833 -78.3515C364.849 2.91038 145.386 354.125 226.648 706.109C307.909 1058.09 659.124 1277.56 1011.11 1196.29C1363.09 1115.03 1582.55 763.817 1501.29 411.834Z" stroke="url(#paint6_linear_102_284)" stroke-linecap="round" stroke-dasharray="1000 1000"/>
<path opacity="0.37" d="M1395.02 252.367C1225.69 -40.9251 850.66 -141.414 557.367 27.9179C264.075 197.25 163.586 572.282 332.918 865.574C502.251 1158.87 877.282 1259.36 1170.57 1090.02C1463.87 920.691 1564.36 545.659 1395.02 252.367Z" stroke="url(#paint7_linear_102_284)" stroke-linecap="round" stroke-dasharray="881 1000"/>
<path opacity="0.41" d="M1254.3 140.398C1023.12 -75.173 660.968 -62.5263 445.398 168.645C229.827 399.817 242.474 761.973 473.645 977.543C704.816 1193.11 1066.97 1180.47 1282.54 949.296C1498.11 718.125 1485.47 355.969 1254.3 140.398Z" stroke="url(#paint8_linear_102_284)" stroke-linecap="round" stroke-dasharray="764 1000"/>
<path opacity="0.46" d="M1096.94 81.3103C833.136 -47.3557 514.976 62.1956 386.31 326C257.644 589.805 367.195 907.965 631 1036.63C894.804 1165.3 1212.96 1055.75 1341.63 791.941C1470.3 528.137 1360.75 209.976 1096.94 81.3103Z" stroke="url(#paint9_linear_102_284)" stroke-linecap="round" stroke-dasharray="655 1000"/>
<path opacity="0.5" d="M940.712 74.4459C673.116 32.0629 421.828 214.634 379.445 482.23C337.062 749.826 519.633 1001.11 787.229 1043.5C1054.83 1085.88 1306.11 903.309 1348.5 635.713C1390.88 368.117 1208.31 116.829 940.712 74.4459Z" stroke="url(#paint10_linear_102_284)" stroke-linecap="round" stroke-dasharray="554 1000"/>
<path opacity="0.55" d="M793.624 114.822C548.328 153.673 380.971 384.02 419.822 629.317C458.673 874.613 689.02 1041.97 934.316 1003.12C1179.61 964.268 1346.97 733.921 1308.12 488.624C1269.27 243.328 1038.92 75.9707 793.624 114.822Z" stroke="url(#paint11_linear_102_284)" stroke-linecap="round" stroke-dasharray="462 1000"/>
<path opacity="0.59" d="M684.762 191.54C481.836 290.513 397.566 535.252 496.539 738.179C595.513 941.105 840.252 1025.38 1043.18 926.401C1246.1 827.428 1330.38 582.689 1231.4 379.762C1132.43 176.836 887.689 92.5656 684.762 191.54Z" stroke="url(#paint12_linear_102_284)" stroke-linecap="round" stroke-dasharray="378 1000"/>
<path opacity="0.64" d="M613.047 289.888C464.437 428.47 456.307 661.284 594.888 809.894C733.469 958.505 966.284 966.635 1114.89 828.053C1263.5 689.472 1271.63 456.658 1133.05 308.047C994.472 159.437 761.657 151.307 613.047 289.888Z" stroke="url(#paint13_linear_102_284)" stroke-linecap="round" stroke-dasharray="302 933"/>
<path opacity="0.68" d="M580.743 395.449C490.432 551.872 544.027 751.888 700.449 842.199C856.872 932.509 1056.89 878.915 1147.2 722.493C1237.51 566.07 1183.92 366.053 1027.49 275.743C871.07 185.432 671.054 239.027 580.743 395.449Z" stroke="url(#paint14_linear_102_284)" stroke-linecap="round" stroke-dasharray="235 829"/>
<path opacity="0.73" d="M585.142 494.598C549.59 648.591 645.605 802.247 799.598 837.799C953.591 873.351 1107.25 777.336 1142.8 623.343C1178.35 469.351 1082.34 315.694 928.343 280.142C774.35 244.59 620.694 340.605 585.142 494.598Z" stroke="url(#paint15_linear_102_284)" stroke-linecap="round" stroke-dasharray="176 726"/>
<path opacity="0.77" d="M619.285 576.081C628.734 711.217 745.944 813.106 881.08 803.656C1016.22 794.206 1118.1 676.997 1108.65 541.861C1099.21 406.725 981.996 304.836 846.86 314.286C711.724 323.735 609.835 440.945 619.285 576.081Z" stroke="url(#paint16_linear_102_284)" stroke-linecap="round" stroke-dasharray="126 622"/>
<path opacity="0.82" d="M673.144 632.222C713.6 737.612 831.831 790.252 937.221 749.797C1042.61 709.341 1095.25 591.11 1054.8 485.719C1014.34 380.329 896.109 327.689 790.719 368.145C685.329 408.6 632.689 526.832 673.144 632.222Z" stroke="url(#paint17_linear_102_284)" stroke-linecap="round" stroke-dasharray="84 518"/>
<path opacity="0.86" d="M736.891 661.879C793.725 732.063 896.694 742.886 966.878 686.051C1037.06 629.217 1047.89 526.248 991.051 456.064C934.217 385.879 831.248 375.057 761.063 431.891C690.879 488.725 680.056 591.694 736.891 661.879Z" stroke="url(#paint18_linear_102_284)" stroke-linecap="round" stroke-dasharray="50 415"/>
<path opacity="0.91" d="M795.391 660.644C851.544 698.52 927.77 683.703 965.645 627.55C1003.52 571.397 988.704 495.172 932.551 457.296C876.398 419.42 800.173 434.237 762.297 490.39C724.421 546.543 739.238 622.769 795.391 660.644Z" stroke="url(#paint19_linear_102_284)" stroke-linecap="round" stroke-dasharray="25 311"/>
<path opacity="0.95" d="M840.067 637.159C883.249 650.361 928.957 626.058 942.16 582.875C955.362 539.693 931.058 493.985 887.876 480.782C844.694 467.58 798.985 491.884 785.783 535.066C772.581 578.248 796.884 623.957 840.067 637.159Z" stroke="url(#paint20_linear_102_284)" stroke-linecap="round" stroke-dasharray="8 207"/>
<path d="M863.971 599.851C886.549 599.851 904.852 581.548 904.852 558.97C904.852 536.393 886.549 518.09 863.971 518.09C841.394 518.09 823.091 536.393 823.091 558.97C823.091 581.548 841.394 599.851 863.971 599.851Z" stroke="url(#paint21_linear_102_284)" stroke-linecap="round"/>
</g>
<g filter="url(#filter1_bdd_102_284)">
<rect x="52" y="898.401" width="335.736" height="335.736" rx="59.217" transform="rotate(-45 52 898.401)" fill="#0E131E"/>
</g>
<g filter="url(#filter2_bdd_102_284)">
<rect x="1080" y="131.401" width="261.206" height="261.206" rx="59.217" transform="rotate(-45 1080 131.401)" fill="#0E131E"/>
</g>
<g filter="url(#filter3_bdd_102_284)">
<rect x="1028" y="742.401" width="335.736" height="335.736" rx="59.217" transform="rotate(-45 1028 742.401)" fill="#0E131E"/>
</g>
<defs>
<filter id="filter0_d_102_284" x="-275.059" y="-576.059" width="2278.06" height="2278.06" filterUnits="userSpaceOnUse" color-interpolation-filters="sRGB">
<feFlood flood-opacity="0" result="BackgroundImageFix"/>
<feColorMatrix in="SourceAlpha" type="matrix" values="0 0 0 0 0 0 0 0 0 0 0 0 0 0 0 0 0 0 127 0" result="hardAlpha"/>
<feOffset dy="4"/>
<feGaussianBlur stdDeviation="2"/>
<feComposite in2="hardAlpha" operator="out"/>
<feColorMatrix type="matrix" values="0 0 0 0 0 0 0 0 0 0 0 0 0 0 0 0 0 0 0.25 0"/>
<feBlend mode="normal" in2="BackgroundImageFix" result="effect1_dropShadow_102_284"/>
<feBlend mode="normal" in="SourceGraphic" in2="effect1_dropShadow_102_284" result="shape"/>
</filter>
<filter id="filter1_bdd_102_284" x="-9.60545" y="599.395" width="598.013" height="598.013" filterUnits="userSpaceOnUse" color-interpolation-filters="sRGB">
<feFlood flood-opacity="0" result="BackgroundImageFix"/>
<feGaussianBlur in="BackgroundImageFix" stdDeviation="43.0669"/>
<feComposite in2="SourceAlpha" operator="in" result="effect1_backgroundBlur_102_284"/>
<feColorMatrix in="SourceAlpha" type="matrix" values="0 0 0 0 0 0 0 0 0 0 0 0 0 0 0 0 0 0 127 0" result="hardAlpha"/>
<feOffset dy="10.7667"/>
<feGaussianBlur stdDeviation="13.4584"/>
<feComposite in2="hardAlpha" operator="out"/>
<feColorMatrix type="matrix" values="0 0 0 0 0 0 0 0 0 0 0 0 0 0 0 0 0 0 0.1 0"/>
<feBlend mode="normal" in2="effect1_backgroundBlur_102_284" result="effect2_dropShadow_102_284"/>
<feColorMatrix in="SourceAlpha" type="matrix" values="0 0 0 0 0 0 0 0 0 0 0 0 0 0 0 0 0 0 127 0" result="hardAlpha"/>
<feOffset dy="-24"/>
<feGaussianBlur stdDeviation="19.5"/>
<feComposite in2="hardAlpha" operator="out"/>
<feColorMatrix type="matrix" values="0 0 0 0 0.0139583 0 0 0 0 0.0176389 0 0 0 0 0.025 0 0 0 1 0"/>
<feBlend mode="normal" in2="effect2_dropShadow_102_284" result="effect3_dropShadow_102_284"/>
<feBlend mode="normal" in="SourceGraphic" in2="effect3_dropShadow_102_284" result="shape"/>
</filter>
<filter id="filter2_bdd_102_284" x="1018.39" y="-114.905" width="492.612" height="492.612" filterUnits="userSpaceOnUse" color-interpolation-filters="sRGB">
<feFlood flood-opacity="0" result="BackgroundImageFix"/>
<feGaussianBlur in="BackgroundImageFix" stdDeviation="43.0669"/>
<feComposite in2="SourceAlpha" operator="in" result="effect1_backgroundBlur_102_284"/>
<feColorMatrix in="SourceAlpha" type="matrix" values="0 0 0 0 0 0 0 0 0 0 0 0 0 0 0 0 0 0 127 0" result="hardAlpha"/>
<feOffset dy="10.7667"/>
<feGaussianBlur stdDeviation="13.4584"/>
<feComposite in2="hardAlpha" operator="out"/>
<feColorMatrix type="matrix" values="0 0 0 0 0 0 0 0 0 0 0 0 0 0 0 0 0 0 0.1 0"/>
<feBlend mode="normal" in2="effect1_backgroundBlur_102_284" result="effect2_dropShadow_102_284"/>
<feColorMatrix in="SourceAlpha" type="matrix" values="0 0 0 0 0 0 0 0 0 0 0 0 0 0 0 0 0 0 127 0" result="hardAlpha"/>
<feOffset dy="-24"/>
<feGaussianBlur stdDeviation="19.5"/>
<feComposite in2="hardAlpha" operator="out"/>
<feColorMatrix type="matrix" values="0 0 0 0 0.0139583 0 0 0 0 0.0176389 0 0 0 0 0.025 0 0 0 1 0"/>
<feBlend mode="normal" in2="effect2_dropShadow_102_284" result="effect3_dropShadow_102_284"/>
<feBlend mode="normal" in="SourceGraphic" in2="effect3_dropShadow_102_284" result="shape"/>
</filter>
<filter id="filter3_bdd_102_284" x="966.395" y="443.395" width="598.012" height="598.013" filterUnits="userSpaceOnUse" color-interpolation-filters="sRGB">
<feFlood flood-opacity="0" result="BackgroundImageFix"/>
<feGaussianBlur in="BackgroundImageFix" stdDeviation="43.0669"/>
<feComposite in2="SourceAlpha" operator="in" result="effect1_backgroundBlur_102_284"/>
<feColorMatrix in="SourceAlpha" type="matrix" values="0 0 0 0 0 0 0 0 0 0 0 0 0 0 0 0 0 0 127 0" result="hardAlpha"/>
<feOffset dy="10.7667"/>
<feGaussianBlur stdDeviation="13.4584"/>
<feComposite in2="hardAlpha" operator="out"/>
<feColorMatrix type="matrix" values="0 0 0 0 0 0 0 0 0 0 0 0 0 0 0 0 0 0 0.1 0"/>
<feBlend mode="normal" in2="effect1_backgroundBlur_102_284" result="effect2_dropShadow_102_284"/>
<feColorMatrix in="SourceAlpha" type="matrix" values="0 0 0 0 0 0 0 0 0 0 0 0 0 0 0 0 0 0 127 0" result="hardAlpha"/>
<feOffset dy="25"/>
<feGaussianBlur stdDeviation="19.5"/>
<feComposite in2="hardAlpha" operator="out"/>
<feColorMatrix type="matrix" values="0 0 0 0 0.0139583 0 0 0 0 0.0176389 0 0 0 0 0.025 0 0 0 1 0"/>
<feBlend mode="normal" in2="effect2_dropShadow_102_284" result="effect3_dropShadow_102_284"/>
<feBlend mode="normal" in="SourceGraphic" in2="effect3_dropShadow_102_284" result="shape"/>
</filter>
<linearGradient id="paint0_linear_102_284" x1="89901.6" y1="-340.398" x2="89901.6" y2="179534" gradientUnits="userSpaceOnUse">
<stop stop-color="#1F89DB"/>
<stop offset="0.28125" stop-color="#F42A8B"/>
</linearGradient>
<linearGradient id="paint1_linear_102_284" x1="81889.7" y1="-25110.8" x2="132089" y2="139085" gradientUnits="userSpaceOnUse">
<stop stop-color="#1F89DB"/>
<stop offset="0.28125" stop-color="#F42A8B"/>
</linearGradient>
<linearGradient id="paint2_linear_102_284" x1="67511.8" y1="-45381.8" x2="158952" y2="90183.9" gradientUnits="userSpaceOnUse">
<stop stop-color="#1F89DB"/>
<stop offset="0.28125" stop-color="#F42A8B"/>
</linearGradient>
<linearGradient id="paint3_linear_102_284" x1="48652.6" y1="-59689.3" x2="169379" y2="38072.9" gradientUnits="userSpaceOnUse">
<stop stop-color="#1F89DB"/>
<stop offset="0.28125" stop-color="#F42A8B"/>
</linearGradient>
<linearGradient id="paint4_linear_102_284" x1="26283.7" y1="-67715.1" x2="163678" y2="-14974.2" gradientUnits="userSpaceOnUse">
<stop stop-color="#1F89DB"/>
<stop offset="0.28125" stop-color="#F42A8B"/>
</linearGradient>
<linearGradient id="paint5_linear_102_284" x1="4970.06" y1="-68123.7" x2="143625" y2="-58428" gradientUnits="userSpaceOnUse">
<stop stop-color="#1F89DB"/>
<stop offset="0.28125" stop-color="#F42A8B"/>
</linearGradient>
<linearGradient id="paint6_linear_102_284" x1="-14340" y1="-62388.8" x2="113125" y2="-91816.4" gradientUnits="userSpaceOnUse">
<stop stop-color="#1F89DB"/>
<stop offset="0.28125" stop-color="#F42A8B"/>
</linearGradient>
<linearGradient id="paint7_linear_102_284" x1="-30020.8" y1="-51708.6" x2="76189.7" y2="-113029" gradientUnits="userSpaceOnUse">
<stop stop-color="#1F89DB"/>
<stop offset="0.28125" stop-color="#F42A8B"/>
</linearGradient>
<linearGradient id="paint8_linear_102_284" x1="-40965.1" y1="-37664.7" x2="37100" y2="-121379" gradientUnits="userSpaceOnUse">
<stop stop-color="#1F89DB"/>
<stop offset="0.28125" stop-color="#F42A8B"/>
</linearGradient>
<linearGradient id="paint9_linear_102_284" x1="-46657.4" y1="-22027.4" x2="-63.2707" y2="-117559" gradientUnits="userSpaceOnUse">
<stop stop-color="#1F89DB"/>
<stop offset="0.28125" stop-color="#F42A8B"/>
</linearGradient>
<linearGradient id="paint10_linear_102_284" x1="-47180.8" y1="-6553.89" x2="-31832.5" y2="-103459" gradientUnits="userSpaceOnUse">
<stop stop-color="#1F89DB"/>
<stop offset="0.28125" stop-color="#F42A8B"/>
</linearGradient>
<linearGradient id="paint11_linear_102_284" x1="-43036.4" y1="7967.39" x2="-57105.6" y2="-80862.3" gradientUnits="userSpaceOnUse">
<stop stop-color="#1F89DB"/>
<stop offset="0.28125" stop-color="#F42A8B"/>
</linearGradient>
<linearGradient id="paint12_linear_102_284" x1="-35332.5" y1="18668" x2="-71174.1" y2="-54818.2" gradientUnits="userSpaceOnUse">
<stop stop-color="#1F89DB"/>
<stop offset="0.28125" stop-color="#F42A8B"/>
</linearGradient>
<linearGradient id="paint13_linear_102_284" x1="-25524.3" y1="25669.5" x2="-75709" y2="-28147" gradientUnits="userSpaceOnUse">
<stop stop-color="#1F89DB"/>
<stop offset="0.28125" stop-color="#F42A8B"/>
</linearGradient>
<linearGradient id="paint14_linear_102_284" x1="-15041.5" y1="28762.1" x2="-71687" y2="-3942.29" gradientUnits="userSpaceOnUse">
<stop stop-color="#1F89DB"/>
<stop offset="0.28125" stop-color="#F42A8B"/>
</linearGradient>
<linearGradient id="paint15_linear_102_284" x1="-5230.1" y1="28227.4" x2="-60995.8" y2="15352.8" gradientUnits="userSpaceOnUse">
<stop stop-color="#1F89DB"/>
<stop offset="0.28125" stop-color="#F42A8B"/>
</linearGradient>
<linearGradient id="paint16_linear_102_284" x1="2802.55" y1="24765.7" x2="-46134.5" y2="28187.7" gradientUnits="userSpaceOnUse">
<stop stop-color="#1F89DB"/>
<stop offset="0.28125" stop-color="#F42A8B"/>
</linearGradient>
<linearGradient id="paint17_linear_102_284" x1="8306.66" y1="19377.5" x2="-29858.5" y2="34027.7" gradientUnits="userSpaceOnUse">
<stop stop-color="#1F89DB"/>
<stop offset="0.28125" stop-color="#F42A8B"/>
</linearGradient>
<linearGradient id="paint18_linear_102_284" x1="11178.9" y1="13037" x2="-14237.2" y2="33618.5" gradientUnits="userSpaceOnUse">
<stop stop-color="#1F89DB"/>
<stop offset="0.28125" stop-color="#F42A8B"/>
</linearGradient>
<linearGradient id="paint19_linear_102_284" x1="10998.3" y1="7246.73" x2="-2717.73" y2="27581.6" gradientUnits="userSpaceOnUse">
<stop stop-color="#1F89DB"/>
<stop offset="0.28125" stop-color="#F42A8B"/>
</linearGradient>
<linearGradient id="paint20_linear_102_284" x1="8628.52" y1="2847.33" x2="3847.61" y2="18485" gradientUnits="userSpaceOnUse">
<stop stop-color="#1F89DB"/>
<stop offset="0.28125" stop-color="#F42A8B"/>
</linearGradient>
<linearGradient id="paint21_linear_102_284" x1="4911.13" y1="518.09" x2="4911.13" y2="8694.18" gradientUnits="userSpaceOnUse">
<stop stop-color="#1F89DB"/>
<stop offset="0.28125" stop-color="#F42A8B"/>
</linearGradient>
</defs>
</svg>
